<svg viewBox="0 0 24 24" xmlns="http://www.w3.org/2000/svg">
  <path fill="#D97706" d="M4.709 15.955l4.72-2.647.08-.08v-.08l-.08-.08-2.123-1.203-2.276-1.283c-.16-.08-.321-.241-.321-.482V8.576c0-.16.08-.321.16-.401.08-.16.241-.241.402-.321l2.356-1.364 2.195-1.283c.08-.08.16-.08.241-.08.08 0 .16.08.241.08l4.56 2.647c.08.08.16.16.16.321v5.374c0 .16-.08.321-.16.401l-4.56 2.647c-.08.08-.16.08-.241.08-.08 0-.16-.08-.241-.08l-2.195-1.283-2.356-1.364c-.16-.08-.321-.241-.402-.321-.08-.16-.16-.241-.16-.401v-1.524c0-.241.16-.401.321-.482l2.276-1.283 2.123-1.203.08-.08v-.08l-.08-.08-4.72-2.647"/>
  <path fill="#D97706" d="M19.291 8.045l-4.72 2.647-.08.08v.08l.08.08 2.123 1.203 2.276 1.283c.16.08.321.241.321.482v1.524c0 .16-.08.321-.16.401-.08.16-.241.241-.402.321l-2.356 1.364-2.195 1.283c-.08.08-.16.08-.241.08-.08 0-.16-.08-.241-.08l-4.56-2.647c-.08-.08-.16-.16-.16-.321V9.472c0-.16.08-.321.16-.401l4.56-2.647c.08-.08.16-.08.241-.08.08 0 .16.08.241.08l2.195 1.283 2.356 1.364c.16.08.321.241.402.321.08.16.16.241.16.401v1.524c0 .241-.16.401-.321.482l-2.276 1.283-2.123 1.203-.08.08v.08l.08.08 4.72 2.647"/>
</svg>
