<svg viewBox="0 0 32 32" fill="none" xmlns="http://www.w3.org/2000/svg">
  <!-- Raven: AI Teams Engine Logo - Flock of birds representing multi-agent collaboration -->
  <!-- Lead bird (largest, darkest) -->
  <path d="M10 14 C12.5 9 14 7 16 6 C18 7 19.5 9 22 14" stroke="#1E3A8A" stroke-width="2.2" stroke-linecap="round" stroke-linejoin="round" fill="none" />
  <!-- Second row birds -->
  <path d="M4 19 C5.8 15.5 7 14 8.5 13 C10 14 11.2 15.5 13 19" stroke="#2563EB" stroke-width="1.8" stroke-linecap="round" stroke-linejoin="round" fill="none" />
  <path d="M19 18 C20.8 14.5 22 13 23.5 12 C25 13 26.2 14.5 28 18" stroke="#2563EB" stroke-width="1.8" stroke-linecap="round" stroke-linejoin="round" fill="none" />
  <!-- Third row birds (smaller, lighter) -->
  <path d="M1 25 C2.3 22.5 3 21.5 4 21 C5 21.5 5.7 22.5 7 25" stroke="#3B82F6" stroke-width="1.4" stroke-linecap="round" stroke-linejoin="round" fill="none" />
  <path d="M12.5 23 C13.8 20.5 14.5 19.5 15.5 19 C16.5 19.5 17.2 20.5 18.5 23" stroke="#3B82F6" stroke-width="1.4" stroke-linecap="round" stroke-linejoin="round" fill="none" />
  <path d="M24 24 C25.3 21.5 26 20.5 27 20 C28 20.5 28.7 21.5 30 24" stroke="#3B82F6" stroke-width="1.4" stroke-linecap="round" stroke-linejoin="round" fill="none" />
  <!-- Distant birds -->
  <path d="M7 29 C7.8 27.5 8.2 27 8.8 26.7 C9.4 27 9.8 27.5 10.6 29" stroke="#93C5FD" stroke-width="1" stroke-linecap="round" stroke-linejoin="round" fill="none" />
  <path d="M21 29.5 C21.8 28 22.2 27.5 22.8 27.2 C23.4 27.5 23.8 28 24.6 29.5" stroke="#93C5FD" stroke-width="1" stroke-linecap="round" stroke-linejoin="round" fill="none" />
</svg>
